<?xml version="1.0"?>
<svg width="762" height="762" xmlns="http://www.w3.org/2000/svg" xmlns:svg="http://www.w3.org/2000/svg">
 <g class="layer">
  <title>Layer 1</title>
  <rect fill="none" height="100%" id="svg_1" width="100%"/>
  <path d="m195,534l5,5l97,0l16,7l112,0l27,9l26,4l25,0l26,-4l26,-8l23,-11l0,-2l-383,0zm-47,-40l3,5l95,0l6,6l111,0l17,14l221,0l24,-23l0,-2l-477,0zm-25,-40l2,5l95,0l4,6l111,0l8,13l295,0l11,-24l-526,0zm400,-16l133,0l6,-24l-117,-1l-9,12l-13,11l0,2zm-412,-25l0,5l96,1l3,6l110,0l5,13l131,0l-12,-12l-9,-13l-324,0zm-2,-39l1,5l93,0l2,6l110,0l2,2l1,11l111,-1l-1,-24l-319,1zm417,-40l0,2l11,10l6,10l3,2l116,-1l-2,-13l-4,-10l-130,0zm-411,4l94,1l2,6l108,0l0,12l114,1l20,-24l-337,0l-1,4zm17,-42l92,2l2,7l107,0l-2,12l319,0l-12,-24l-503,0l-3,3zm33,-38l88,0l2,7l104,0l1,5l-4,7l269,0l0,-3l-20,-20l-438,0l-2,4zm414,-21l0,-2l-27,-13l-34,-9l-263,0l-15,3l0,2l74,0l1,6l97,0l1,5l-11,6l0,2l177,0z" fill="#000000" fill-rule="evenodd" id="svg_2" transform="matrix(1 0 0 1 0 0)"/>
 </g>
</svg>