<?xml version="1.0"?>
<svg width="124" height="124" xmlns="http://www.w3.org/2000/svg" xmlns:svg="http://www.w3.org/2000/svg">
 <g class="layer">
  <title>Layer 1</title>
  <rect fill="#000000" height="124" id="svg_1" transform="matrix(1 0 0 1 0 0)" width="124"/>
  <path d="m39.01,63.01c-3.24,0.95 -5.84,2.06 -6.98,2.96c-0.34,0.27 -0.74,0.4 -1.14,0.4c-0.55,0 -1.09,-0.24 -1.45,-0.7c-0.64,-0.8 -0.5,-1.96 0.3,-2.6c2.06,-1.64 6.04,-2.96 8.22,-3.6c0.98,-0.29 2.01,0.27 2.3,1.25c0.28,0.97 -0.28,2 -1.25,2.29zm25.01,12.16c0.95,4.87 0.03,9.32 -2.67,12.86c-2.37,3.11 -5.94,5.27 -10.05,6.07c-1.14,0.23 -2.27,0.34 -3.4,0.34c-2.93,0 -5.76,-0.75 -8.19,-2.2c-3.83,-2.27 -6.35,-6.04 -7.3,-10.91l-0.02,-0.1c-0.16,-0.85 0.29,-1.69 1.08,-2.04c1.35,-0.59 2.88,-1.17 4.56,-1.71c0.52,-0.18 1.1,-0.1 1.57,0.2c6.37,4.12 12.03,3.01 16.39,-3.19c0.32,-0.45 0.83,-0.74 1.38,-0.78c1.76,-0.12 3.4,-0.16 4.87,-0.12c0.86,0.02 1.6,0.64 1.76,1.49l0.02,0.09l0,0zm-3.42,2.1c-0.67,0.01 -1.38,0.03 -2.12,0.07c-3.27,4.31 -7.28,6.5 -11.64,6.5c-2.72,0 -5.58,-0.85 -8.48,-2.58c-0.7,0.24 -1.36,0.48 -1.99,0.73c2.1,7.31 8.69,9.57 14.23,8.49c5.53,-1.08 10.8,-5.64 10,-13.21zm-9.57,-16.6c3.36,-0.33 6.19,-0.29 7.58,0.12c0.17,0.05 0.35,0.08 0.52,0.08c0.8,0 1.53,-0.52 1.77,-1.33c0.29,-0.98 -0.27,-2 -1.25,-2.29c-2.4,-0.71 -6.21,-0.53 -8.98,-0.26c-1.01,0.1 -1.76,1.01 -1.66,2.02c0.1,1.02 1.01,1.76 2.02,1.66zm21.74,-23.57c0.06,0.01 0.12,0.01 0.18,0.01c0.94,0 1.74,-0.72 1.84,-1.67c0.09,-1.02 -0.65,-1.92 -1.67,-2.02c-3.36,-0.31 -6.13,-0.9 -7.41,-1.57c-0.91,-0.46 -2.02,-0.11 -2.49,0.79c-0.47,0.91 -0.12,2.02 0.79,2.49c2.34,1.22 6.49,1.76 8.76,1.97zm12.77,0.01c0.06,0 0.12,0 0.18,-0.01c2.77,-0.26 6.54,-0.81 8.76,-1.97c0.91,-0.47 1.26,-1.58 0.79,-2.49c-0.47,-0.9 -1.58,-1.25 -2.49,-0.79c-1.28,0.67 -4.05,1.26 -7.41,1.57c-1.01,0.1 -1.76,1 -1.66,2.02c0.09,0.95 0.89,1.67 1.83,1.67zm-10.04,36.03c2.51,12.92 -6.64,26.35 -21.75,31.96c-0.19,0.07 -0.39,0.1 -0.59,0.11c-0.41,0.01 -0.82,0.02 -1.22,0.02c-15.57,0 -28.48,-8.89 -30.93,-21.48l-4.95,-25.42c-0.49,-2.53 1.99,-4.86 7.8,-7.33c4.72,-2 11.12,-3.85 18.04,-5.19c6.91,-1.35 13.54,-2.05 18.67,-1.96c6.31,0.11 9.48,1.34 9.97,3.87l4.96,25.42zm-3.63,0.71l-4.92,-25.25c-0.46,-0.36 -2.49,-1.08 -7.59,-1.06c-4.7,0.03 -10.65,0.7 -16.76,1.89c-6.1,1.19 -11.87,2.8 -16.24,4.54c-4.74,1.88 -6.34,3.32 -6.64,3.82l4.92,25.26c2.15,11.05 13.95,18.78 28.11,18.48c13.24,-5.03 21.27,-16.63 19.12,-27.68zm26.08,-53.2c-5.02,-1.06 -11.66,-1.65 -18.7,-1.65c-7.05,0 -13.69,0.59 -18.71,1.65c-6.17,1.31 -9.05,3.12 -9.05,5.7l0,11.33c0,1.02 0.83,1.85 1.85,1.85c1.02,0 1.85,-0.83 1.85,-1.85l0,-11.15c0.38,-0.44 2.23,-1.55 7.24,-2.49c4.63,-0.87 10.6,-1.35 16.82,-1.35c6.21,0 12.18,0.48 16.81,1.35c5.01,0.94 6.86,2.05 7.25,2.49l0,25.73c0,10.37 -8.44,19.55 -20.99,22.84c-0.99,0.26 -1.58,1.27 -1.32,2.25c0.22,0.83 0.97,1.38 1.79,1.38c0.15,0 0.31,-0.02 0.47,-0.06c6.77,-1.77 12.63,-5.17 16.92,-9.82c4.46,-4.83 6.82,-10.57 6.82,-16.59l0,-25.91c0,-2.58 -2.88,-4.39 -9.05,-5.7zm-10.06,42.97c0.07,0 0.15,0 0.22,-0.01c1.75,-0.22 3.37,-0.49 4.8,-0.82c0.85,-0.18 1.45,-0.93 1.45,-1.8l0,-0.09c0,-4.85 -1.69,-8.97 -4.88,-11.93c-3.27,-3.02 -7.87,-4.55 -12.61,-4.17c-1.02,0.07 -1.78,0.96 -1.7,1.98c0.08,1.02 0.97,1.78 1.99,1.7c3.72,-0.29 7.29,0.88 9.81,3.21c2.11,1.95 3.35,4.63 3.63,7.8c-0.66,0.13 -1.36,0.24 -2.09,0.34c-2.94,-2.63 -6.05,-4.09 -9.25,-4.35c-1.02,-0.08 -1.91,0.68 -1.99,1.7c-0.08,1.01 0.68,1.9 1.69,1.98c2.57,0.21 5.14,1.53 7.65,3.94c0.34,0.34 0.8,0.52 1.28,0.52z" fill="#3f3f3f" id="svg_2"/>
 </g>
</svg>