<?xml version="1.0"?>
<svg width="300" height="450" xmlns="http://www.w3.org/2000/svg" xmlns:svg="http://www.w3.org/2000/svg">
 <g class="layer">
  <title>Layer 1</title>
  <rect fill="#000000" height="450" id="svg_1" width="300" x="0.38" y="0.51"/>
  <path d="m119.79,239.96l6.07,-2.06l-2.19,-5.71l-6.08,2.07l2.2,5.71z" fill="#3f3f3f" id="svg_2" transform="matrix(1 0 0 1 0 0) rotate(-0.708166 121.726 236.074)"/>
  <path d="m150.32,236.3l-14.14,-9.01l-7.56,2.92l2,5.8l4.95,-1.91l14.91,9.51l17.73,-12.55l19.98,7.95l0,31.83l-81.38,0l0,-25.63l7.41,-2.86l-1.99,-5.79l-11.24,4.34l0,36.12l93,0l0,-42.27l-26.53,-10.57l-17.15,12.14z" fill="#3f3f3f" id="svg_3" transform="matrix(1 0 0 1 0 0)"/>
  <path d="m101,173l0,59.91l12.09,-5.21l-1.98,-6.45l-4.29,1.84l0,-43.21l81.38,0l0,36.28l-20.72,-9.18l-17.15,13.52l-14.14,-10.04l-8.68,3.73l1.99,6.46l6.09,-2.61l14.91,10.59l17.73,-13.98l25.79,11.44l0,-53.09l-93,0z" fill="#3f3f3f" id="svg_4" transform="matrix(1 0 0 1 0 0)"/>
  <path d="m116.53,218.94l2.24,6.23l5.95,-2.55l-2.24,-6.23l-5.95,2.55z" fill="#3f3f3f" id="svg_5" transform="matrix(1 0 0 1 0 0)"/>
 </g>

</svg>