<?xml version="1.0" encoding="UTF-8"?>
<svg version="1.1" xmlns="http://www.w3.org/2000/svg" width="500" height="750">
<path d="M0 0 C165 0 330 0 500 0 C500 247.5 500 495 500 750 C335 750 170 750 0 750 C0 502.5 0 255 0 0 Z " fill="#141414" transform="translate(0,0)"/>
<path d="M0 0 C2.43303504 0.02368333 4.86497356 0.02052444 7.2980957 0.01391602 C16.00682318 0.03085196 24.31831889 0.49100217 32.87036133 2.33618164 C32.87036133 2.99618164 32.87036133 3.65618164 32.87036133 4.33618164 C33.61286133 4.60430664 34.35536133 4.87243164 35.12036133 5.14868164 C37.76098082 6.28894915 39.72588977 7.4299847 41.87036133 9.33618164 C41.87036133 9.99618164 41.87036133 10.65618164 41.87036133 11.33618164 C42.53036133 11.33618164 43.19036133 11.33618164 43.87036133 11.33618164 C45.30786133 13.52368164 45.30786133 13.52368164 46.87036133 16.33618164 C47.39056351 17.09767014 47.91076569 17.85915863 48.44673157 18.64372253 C50.10288839 21.7759516 50.23397098 23.70390497 50.2109375 27.22802734 C50.21071091 28.3888533 50.21048431 29.54967926 50.21025085 30.74568176 C50.194767 31.98855453 50.17928314 33.23142731 50.16333008 34.51196289 C50.15908524 35.79225876 50.15484039 37.07255463 50.15046692 38.39164734 C50.13905269 41.78331297 50.10961587 45.17458871 50.07635498 48.56610107 C50.04557969 52.03172436 50.03178097 55.49741298 50.0168457 58.96313477 C49.98633645 65.75449391 49.92761007 72.54478459 49.87036133 79.33618164 C37.00036133 79.33618164 24.13036133 79.33618164 10.87036133 79.33618164 C10.82137695 76.06196289 10.77239258 72.78774414 10.72192383 69.41430664 C10.66791621 66.24368717 10.6106078 63.07314336 10.55297852 59.90258789 C10.51469247 57.69886917 10.47983895 55.49508803 10.44848633 53.29125977 C10.40282803 50.12371512 10.34483431 46.95660002 10.28442383 43.78930664 C10.27287262 42.80375793 10.26132141 41.81820923 10.24942017 40.80279541 C10.22955048 39.88214294 10.20968079 38.96149048 10.18920898 38.01293945 C10.17588531 37.20463684 10.16256165 36.39633423 10.14883423 35.5635376 C9.83574401 33.05929623 9.25342591 31.44501279 7.87036133 29.33618164 C3.43252509 27.95552148 1.02545051 28.5161256 -3.12963867 30.33618164 C-3.19965132 46.72997853 -3.25258874 63.12372709 -3.28507519 79.51763725 C-3.30055866 87.12924058 -3.32167627 94.74075113 -3.35595703 102.35229492 C-3.3858143 108.98481466 -3.4052029 115.61726723 -3.41190416 122.2498523 C-3.4158227 125.76333117 -3.4250621 129.27661785 -3.44682884 132.79003525 C-3.47090382 136.70763562 -3.47161103 140.62504621 -3.47021484 144.54272461 C-3.48100067 145.71372711 -3.4917865 146.88472961 -3.50289917 148.09121704 C-3.49877518 149.15414978 -3.49465118 150.21708252 -3.49040222 151.31222534 C-3.4931676 152.23954908 -3.49593298 153.16687283 -3.49878216 154.12229729 C-3.37696481 154.85287912 -3.25514746 155.58346096 -3.12963867 156.33618164 C0.3148687 158.63251989 2.80848416 158.87634649 6.87036133 159.33618164 C6.87036133 158.67618164 6.87036133 158.01618164 6.87036133 157.33618164 C7.53036133 157.33618164 8.19036133 157.33618164 8.87036133 157.33618164 C8.87036133 156.34618164 8.87036133 155.35618164 8.87036133 154.33618164 C9.53036133 154.33618164 10.19036133 154.33618164 10.87036133 154.33618164 C10.87036133 138.82618164 10.87036133 123.31618164 10.87036133 107.33618164 C23.74036133 107.33618164 36.61036133 107.33618164 49.87036133 107.33618164 C50.01775457 114.70350424 50.15788579 122.0653969 50.23261261 129.43291473 C50.26936778 132.86461863 50.31835463 136.29508475 50.3984375 139.72607422 C50.49002679 143.67537769 50.52319104 147.62420065 50.55395508 151.57446289 C50.59008408 152.78636795 50.62621307 153.99827301 50.66343689 155.24690247 C50.66747515 164.10965321 48.31862845 169.41555906 42.87036133 176.33618164 C42.20479721 177.22852005 41.53923309 178.12085846 40.85350037 179.04023743 C38.23524714 182.07147389 35.59691924 182.96323925 31.87036133 184.33618164 C31.07472778 184.68758713 30.27909424 185.03899261 29.45935059 185.40104675 C26.75193742 186.37895599 24.7500089 186.59519998 21.8840332 186.61083984 C20.91953247 186.62037186 19.95503174 186.62990387 18.96130371 186.63972473 C17.93098022 186.63881332 16.90065674 186.63790192 15.83911133 186.63696289 C14.23610168 186.64339058 14.23610168 186.64339058 12.60070801 186.64994812 C10.34473376 186.65568257 8.08874103 186.65619822 5.83276367 186.65185547 C2.38273618 186.64869298 -1.06643572 186.67217525 -4.51635742 186.69750977 C-6.71036676 186.69978259 -8.9043784 186.70048633 -11.09838867 186.69946289 C-12.12871216 186.70867264 -13.15903564 186.71788239 -14.22058105 186.72737122 C-19.37982006 186.69405261 -22.90935833 186.64267816 -27.12963867 183.33618164 C-28.47299963 182.88589305 -29.82720194 182.46608451 -31.19213867 182.08618164 C-34.38194433 180.94696533 -35.77663041 179.9206617 -37.44213867 176.96118164 C-37.99901367 175.76493164 -38.55588867 174.56868164 -39.12963867 173.33618164 C-39.65200261 172.56626798 -40.17436655 171.79635431 -40.7125597 171.00310993 C-42.42531605 167.77971981 -42.49953546 165.67840169 -42.49040222 162.04032898 C-42.49452621 160.77133255 -42.49865021 159.50233612 -42.50289917 158.19488525 C-42.49228311 156.79626251 -42.4813787 155.39764192 -42.47021484 153.99902344 C-42.46936827 152.52047238 -42.46984431 151.04192007 -42.47154236 149.56336975 C-42.47240255 145.5554184 -42.454773 141.54773679 -42.43382049 137.53984809 C-42.41505766 133.34915522 -42.41330356 129.15845606 -42.40974426 124.96772766 C-42.40042264 117.03465791 -42.37580727 109.10171229 -42.34569579 101.16869718 C-42.31215545 92.13612248 -42.29566669 83.10354183 -42.28060949 74.07092035 C-42.24925781 55.49260376 -42.19649502 36.91440268 -42.12963867 18.33618164 C-41.46963867 18.33618164 -40.80963867 18.33618164 -40.12963867 18.33618164 C-40.21213867 17.61430664 -40.29463867 16.89243164 -40.37963867 16.14868164 C-39.93774236 11.17734811 -36.77576036 8.91356698 -33.19213867 5.71118164 C-23.63858018 -0.68995264 -11.04732789 -0.11476296 0 0 Z " fill="#6C6C6C" transform="translate(248.129638671875,282.663818359375)"/>
<path d="M0 0 C12.23880329 -0.02312166 24.47760143 -0.04091418 36.71642208 -0.05181217 C42.39876512 -0.05704139 48.08109327 -0.06413973 53.76342773 -0.07543945 C59.24229136 -0.08626696 64.72114062 -0.09227654 70.20001411 -0.09487724 C72.29529611 -0.09673174 74.39057728 -0.10035282 76.4858532 -0.10573006 C79.40977584 -0.11293868 82.33363833 -0.11399102 85.25756836 -0.11352539 C86.57062958 -0.1189183 86.57062958 -0.1189183 87.91021729 -0.12442017 C93.88594784 -0.11405216 93.88594784 -0.11405216 95 1 C95.0989294 3.16480797 95.129711 5.33293785 95.125 7.5 C95.12886719 9.27890625 95.12886719 9.27890625 95.1328125 11.09375 C95 14 95 14 94 15 C91.07805335 15.09525367 88.17979671 15.12552736 85.25756836 15.11352539 C83.88209587 15.11374443 83.88209587 15.11374443 82.47883606 15.1139679 C79.43248164 15.1132684 76.38618755 15.10547428 73.33984375 15.09765625 C71.23377007 15.0957922 69.12769597 15.09436824 67.0216217 15.09336853 C61.46657117 15.08954231 55.91154659 15.07971114 50.35650635 15.06866455 C44.6927526 15.05845267 39.02899467 15.05387139 33.36523438 15.04882812 C22.24347815 15.03808896 11.12174123 15.0210113 0 15 C0 10.05 0 5.1 0 0 Z " fill="#E5E5E5" transform="translate(204,476)"/>
<path d="M0 0 C31.35 0 62.7 0 95 0 C95 4.62 95 9.24 95 14 C63.65 14 32.3 14 0 14 C0 9.38 0 4.76 0 0 Z " fill="#EEEEEE" transform="translate(204,261)"/>
<path d="M0 0 C0.66 0.33 1.32 0.66 2 1 C0.71520959 2.50589388 -0.57804082 4.00457375 -1.875 5.5 C-2.95394531 6.75296875 -2.95394531 6.75296875 -4.0546875 8.03125 C-4.69664062 8.6809375 -5.33859375 9.330625 -6 10 C-6.66 10 -7.32 10 -8 10 C-6.44303593 6.17836093 -3.96591316 3.81381505 -1 1 C-0.67 0.67 -0.34 0.34 0 0 Z " fill="#545454" transform="translate(216,288)"/>
</svg>
