<?xml version="1.0"?>
<svg width="768" height="1344" xmlns="http://www.w3.org/2000/svg" xmlns:svg="http://www.w3.org/2000/svg" version="1.1">
 <g class="layer">
  <title>Layer 1</title>
  <rect fill="#000000" height="1345" id="svg_3" width="770.23" x="-2.14" y="-1.05"/>
  <path d="m303,589.37c-7.13,1.34 0.15,2.13 19.51,2.13c16.53,0 19.58,0.24 20.97,1.63c1.42,1.41 4.64,1.61 24.83,1.51c29.73,-0.13 33.5,0.5 26.74,4.49c-1.62,0.95 -2.71,2.1 -2.44,2.55c0.6,0.97 93.75,1.12 94.72,0.16c1.25,-1.25 -6.45,-5.49 -16.63,-9.16l-10.2,-3.68l-77,-0.14c-42.35,-0.08 -78.57,0.15 -80.5,0.51m-45.75,22.79c-4.37,1.76 1.25,2.34 22.76,2.34c22.77,0 24.1,0.1 25.72,2c1.64,1.91 2.96,2 29.74,2.01c16.05,0.01 28.67,0.43 29.53,0.98c1.28,0.81 1.3,1.27 0.16,3.11c-1.12,1.81 -1.12,2.31 0,3.02c1.51,0.95 145.79,1.22 148.26,0.27c0.87,-0.33 1.58,-1.19 1.58,-1.9c0,-1.55 -7.81,-9.78 -10.79,-11.37c-1.5,-0.81 -36.09,-1.1 -123.89,-1.04c-67,0.04 -122.38,0.3 -123.07,0.58m-19.13,23.27c-0.76,0.46 -1.07,1.35 -0.69,1.96c0.48,0.77 8.4,1.11 25.59,1.11c23.82,0 24.96,0.09 25.97,1.99c1.02,1.9 2.3,1.99 30.79,2.25l29.72,0.26l0.31,3.25l0.32,3.25l89.37,0c59.29,0 89.59,-0.34 90.01,-1.01c0.94,-1.52 -4.02,-11.66 -6.3,-12.88c-2.43,-1.3 -282.99,-1.48 -285.09,-0.18m-10.45,23.74c-2,1.99 1.51,2.33 24.33,2.33c24.1,0 25.08,0.08 27.11,2.11c2.05,2.05 2.9,2.11 31.73,2.07c19.38,-0.03 30.05,0.32 30.89,1.01c0.7,0.58 1.27,2.35 1.27,3.93l0,2.88l33.02,0l33.03,0l0.89,-2.25c0.5,-1.24 2.96,-4.37 5.48,-6.96c2.52,-2.6 4.58,-4.96 4.58,-5.25c0,-0.79 -191.55,-0.66 -192.33,0.13m232.33,0.83c0,0.83 0.42,1.5 0.93,1.5c0.52,0 3.06,2.71 5.66,6.01l4.73,6.02l32.59,-0.27l32.59,-0.26l-0.17,-4.8c-0.09,-2.64 -0.88,-5.9 -1.77,-7.25l-1.61,-2.45l-36.47,0c-31.76,0 -36.48,0.19 -36.48,1.5m-235.8,22.7c-0.66,0.66 -1.2,1.56 -1.2,2c0,0.44 11.63,0.8 25.84,0.8c24.52,0 25.94,0.1 27.65,1.99c1.7,1.88 3.32,2 32.4,2.25l30.61,0.26l1.13,3.5l1.13,3.5l29.37,0.28c16.15,0.15 30.38,0.03 31.62,-0.27c2.06,-0.5 2.25,-1.12 2.25,-7.42c0,-5.35 -0.35,-7.01 -1.58,-7.48c-0.87,-0.34 -41.28,-0.61 -89.8,-0.61c-67.28,0 -88.5,0.28 -89.42,1.2m0.3,23.8c-0.34,0.55 -0.37,1.41 -0.06,1.91c0.31,0.5 12.25,0.94 26.72,0.98c23.52,0.07 26.35,0.26 28.1,1.85c1.76,1.59 4.84,1.78 31.6,1.96c16.3,0.11 30.2,0.22 30.88,0.25c0.68,0.03 1.89,1.63 2.7,3.55l1.46,3.5l36.55,0c20.1,0 36.55,-0.35 36.55,-0.77c0,-0.42 -2.02,-3.08 -4.5,-5.91c-2.48,-2.83 -4.5,-5.58 -4.5,-6.12c0,-0.54 -0.71,-1.26 -1.58,-1.59c-2.82,-1.09 -183.25,-0.7 -183.92,0.39m242.58,4.4c-2.31,2.99 -4.84,5.68 -5.64,5.98c-0.79,0.31 -1.44,1.25 -1.44,2.1c0,1.37 4.17,1.52 36.74,1.28l36.73,-0.26l1.44,-3c0.8,-1.65 1.48,-4.8 1.52,-7l0.07,-4l-32.62,-0.26l-32.62,-0.27l-4.18,5.43m-227.33,18.39c-6.88,0.23 -8.75,0.6 -8.75,1.75c0,1.24 3.92,1.46 26.48,1.46c24.7,0 26.69,0.13 29.75,2c3.08,1.88 5.05,1.99 34.02,2c16.91,0 30.75,0.35 30.75,0.78c0,0.43 1.34,2.24 2.98,4.04l2.98,3.26l81.77,-0.18c44.97,-0.11 82.32,-0.39 83,-0.64c1.41,-0.52 7.27,-10.95 7.27,-12.94c0,-0.72 -0.79,-1.33 -1.75,-1.33c-26.57,-0.23 -282.37,-0.4 -288.5,-0.2m8.94,24.03c-1.61,0.19 -2.64,0.83 -2.42,1.5c0.29,0.86 7.74,1.25 27.25,1.45c23.85,0.23 27.07,0.46 28.77,2c1.72,1.55 5.22,1.76 34.01,2.02l32.09,0.29l4.23,3.46l4.22,3.46l62.64,0c44.37,0 63.29,-0.33 64.84,-1.12c3.38,-1.75 10.78,-10.12 10.45,-11.84c-0.27,-1.38 -14.16,-1.54 -131.78,-1.54c-72.32,0 -132.75,0.14 -134.3,0.32m24.31,24.07c0,1.84 3.78,2.11 28.97,2.11c23.58,0 26.19,0.17 30.17,1.98c4.05,1.84 6.64,1.98 36.9,2l32.54,0.02l8.89,3.1c16.14,5.63 40.65,5.6 58.98,-0.07c10.55,-3.27 18.99,-7.52 18.01,-9.09c-0.76,-1.23 -214.46,-1.28 -214.46,-0.05" fill="#3e3e3e" fill-rule="evenodd" id="svg_2" transform="matrix(1 0 0 1 0 0)"/>
 </g>
</svg>