<?xml version="1.0" standalone="no"?>
<!DOCTYPE svg PUBLIC "-//W3C//DTD SVG 20010904//EN"
 "http://www.w3.org/TR/2001/REC-SVG-20010904/DTD/svg10.dtd">
<svg version="1.0" xmlns="http://www.w3.org/2000/svg"
 width="768.000000pt" height="1344.000000pt" viewBox="0 0 768.000000 1344.000000"
 preserveAspectRatio="xMidYMid meet">

<g transform="translate(0.000000,1344.000000) scale(0.100000,-0.100000)"
fill="#000000" stroke="none">
<path d="M0 6720 l0 -6720 3840 0 3840 0 0 6720 0 6720 -3840 0 -3840 0 0
-6720z m4707 798 c102 -37 179 -79 166 -91 -9 -10 -941 -9 -947 1 -3 5 8 16
25 26 68 40 35 46 -260 45 -207 0 -243 2 -257 15 -13 13 -46 16 -202 16 -195
0 -274 9 -197 21 22 4 384 6 805 5 l765 -1 102 -37z m335 -199 c30 -16 108
-98 108 -114 0 -7 -7 -16 -16 -19 -26 -10 -1468 -7 -1483 3 -12 8 -12 12 -2
25 7 9 11 23 7 31 -5 13 -46 15 -293 15 -276 0 -289 1 -306 20 -16 19 -29 20
-257 20 -215 0 -271 6 -227 23 6 3 560 6 1230 6 878 1 1224 -2 1239 -10z m185
-230 c26 -10 79 -111 68 -129 -4 -7 -307 -10 -900 -10 l-894 0 -3 33 -3 32
-297 3 c-285 2 -298 3 -308 22 -10 19 -22 20 -260 20 -172 0 -251 3 -256 11
-3 6 -1 15 5 19 18 10 2820 10 2848 -1z m-1027 -234 c0 -3 -21 -27 -46 -53
-25 -26 -50 -57 -55 -70 l-9 -22 -327 2 -328 3 -3 25 c-7 50 -5 50 -323 49
-287 0 -299 1 -319 21 -19 19 -31 20 -270 20 -228 0 -263 3 -243 23 8 8 1923
9 1923 2z m1145 -18 c8 -13 16 -45 17 -73 l3 -49 -326 -3 -326 -2 -47 60 c-26
33 -52 60 -57 60 -5 0 -9 7 -9 15 0 13 47 15 365 15 l365 0 15 -23z m-1311
-213 c12 -5 16 -21 16 -75 0 -63 -2 -69 -22 -74 -13 -3 -155 -4 -317 -3 l-293
3 -12 35 -11 35 -306 3 c-291 2 -307 3 -324 22 -17 19 -31 20 -277 20 -142 0
-258 4 -258 8 0 31 24 32 906 32 485 0 889 -3 898 -6z m50 -240 c9 -3 16 -11
16 -16 0 -5 20 -33 45 -61 25 -29 45 -55 45 -59 0 -5 -164 -8 -366 -8 l-365 0
-14 34 c-8 19 -23 37 -32 40 -10 2 -149 4 -310 3 -264 -1 -293 0 -311 16 -17
15 -46 17 -280 18 -145 1 -264 5 -268 10 -3 5 -2 14 1 19 7 11 1811 15 1839 4z
m1280 -39 c0 -22 -7 -53 -15 -70 l-14 -30 -368 -3 c-322 -2 -367 0 -367 13 0
8 4 15 9 15 5 0 31 27 57 60 l47 60 326 -2 326 -3 -1 -40z m-91 -195 c16 0 27
-6 27 -13 0 -20 -59 -124 -73 -129 -6 -3 -380 -6 -830 -7 l-818 -2 -29 33
c-17 18 -30 36 -30 40 0 5 -138 8 -307 8 -289 0 -310 1 -340 20 -30 18 -54 20
-295 22 -197 2 -262 6 -265 15 -4 10 65 13 309 15 226 2 2277 1 2651 -2z
m-136 -237 c7 -3 13 -11 13 -17 0 -16 -78 -100 -107 -115 -15 -8 -204 -11
-648 -11 l-627 0 -42 35 -42 34 -321 3 c-288 3 -323 5 -340 20 -17 16 -49 18
-288 20 -196 2 -269 6 -272 15 -3 7 10 13 34 15 63 5 2627 6 2640 1z m-263
-241 c8 -13 -62 -54 -137 -79 -135 -45 -195 -55 -337 -54 -151 1 -205 8 -311
46 -72 25 -75 25 -398 25 -303 0 -329 2 -370 20 -39 18 -65 20 -301 20 -252 0
-290 3 -290 21 0 11 2137 12 2144 1z"/>
</g>
</svg>
