<?xml version="1.0"?>
<svg width="768" height="1344" xmlns="http://www.w3.org/2000/svg" xmlns:svg="http://www.w3.org/2000/svg" version="1.1">
 <g class="layer">
  <title>Layer 1</title>
  <rect fill="none" height="1343" id="svg_3" width="770.23" x="-4.14" y="0.95"/>
  <path d="m248.49,497.93c-12.59,2.32 0.26,3.69 34.45,3.69c29.18,0 34.57,0.42 37.02,2.82c2.51,2.44 8.19,2.79 43.84,2.62c52.49,-0.23 59.15,0.87 47.21,7.78c-2.86,1.65 -4.78,3.64 -4.31,4.42c1.06,1.68 165.52,1.94 167.23,0.28c2.21,-2.17 -11.39,-9.51 -29.36,-15.87l-18.01,-6.38l-135.95,-0.24c-74.77,-0.14 -138.72,0.26 -142.13,0.88m-80.77,39.49c-7.72,3.05 2.21,4.05 40.18,4.05c40.2,0 42.55,0.17 45.41,3.47c2.9,3.31 5.23,3.47 52.51,3.48c28.34,0.02 50.62,0.75 52.14,1.7c2.26,1.4 2.3,2.2 0.28,5.39c-1.98,3.14 -1.98,4 0,5.23c2.67,1.65 257.4,2.11 261.76,0.47c1.54,-0.57 2.79,-2.06 2.79,-3.29c0,-2.69 -13.79,-16.95 -19.05,-19.7c-2.65,-1.4 -63.72,-1.91 -218.73,-1.8c-118.29,0.07 -216.07,0.52 -217.29,1.01m-33.77,40.32c-1.34,0.8 -1.89,2.34 -1.22,3.4c0.85,1.33 14.83,1.92 45.18,1.92c42.06,0 44.07,0.16 45.85,3.45c1.8,3.29 4.06,3.45 54.36,3.9l52.47,0.45l0.55,5.63l0.56,5.63l157.79,0c104.68,0 158.18,-0.59 158.92,-1.75c1.66,-2.63 -7.1,-20.2 -11.12,-22.32c-4.29,-2.25 -499.63,-2.56 -503.34,-0.31m-18.45,41.14c-3.53,3.45 2.67,4.04 42.96,4.04c42.55,0 44.28,0.14 47.86,3.66c3.62,3.55 5.12,3.66 56.02,3.59c34.22,-0.05 53.05,0.55 54.54,1.75c1.24,1.01 2.24,4.07 2.24,6.81l0,4.99l58.3,0l58.32,0l1.57,-3.9c0.88,-2.15 5.23,-7.57 9.68,-12.06c4.45,-4.51 8.09,-8.59 8.09,-9.1c0,-1.37 -338.19,-1.14 -339.57,0.23m410.19,1.44c0,1.44 0.74,2.6 1.64,2.6c0.92,0 5.4,4.7 9.99,10.41l8.35,10.43l57.54,-0.47l57.54,-0.45l-0.3,-8.32c-0.16,-4.57 -1.55,-10.22 -3.13,-12.56l-2.84,-4.25l-64.39,0c-56.07,0 -64.41,0.33 -64.41,2.6m-416.32,39.34c-1.17,1.14 -2.12,2.7 -2.12,3.47c0,0.76 20.53,1.39 45.62,1.39c43.29,0 45.8,0.17 48.82,3.45c3,3.26 5.86,3.47 57.2,3.9l54.04,0.45l2,6.06l2,6.06l51.85,0.49c28.51,0.26 53.64,0.05 55.83,-0.47c3.64,-0.87 3.97,-1.94 3.97,-12.86c0,-9.27 -0.62,-12.15 -2.79,-12.96c-1.54,-0.59 -72.88,-1.06 -158.55,-1.06c-118.79,0 -156.25,0.49 -157.88,2.08m0.53,41.24c-0.6,0.95 -0.65,2.44 -0.11,3.31c0.55,0.87 21.63,1.63 47.18,1.7c41.53,0.12 46.52,0.45 49.61,3.21c3.11,2.76 8.55,3.08 55.79,3.4c28.78,0.19 53.32,0.38 54.52,0.43c1.2,0.05 3.34,2.82 4.77,6.15l2.58,6.06l64.53,0c35.49,0 64.53,-0.61 64.53,-1.33c0,-0.73 -3.57,-5.34 -7.94,-10.24c-4.38,-4.9 -7.94,-9.67 -7.94,-10.6c0,-0.94 -1.25,-2.18 -2.79,-2.76c-4.98,-1.89 -323.54,-1.21 -324.72,0.68m428.29,7.62c-4.08,5.18 -8.55,9.84 -9.96,10.36c-1.39,0.54 -2.54,2.17 -2.54,3.64c0,2.37 7.36,2.63 64.87,2.22l64.85,-0.45l2.54,-5.2c1.41,-2.86 2.61,-8.32 2.68,-12.13l0.12,-6.93l-57.59,-0.45l-57.59,-0.47l-7.38,9.41m-401.36,31.87c-12.15,0.4 -15.45,1.04 -15.45,3.03c0,2.15 6.92,2.53 46.75,2.53c43.61,0 47.12,0.23 52.53,3.47c5.44,3.26 8.92,3.45 60.06,3.47c29.86,0 54.29,0.61 54.29,1.35c0,0.75 2.37,3.88 5.26,7l5.26,5.65l144.37,-0.31c79.4,-0.19 145.34,-0.68 146.54,-1.11c2.49,-0.9 12.84,-18.97 12.84,-22.42c0,-1.25 -1.39,-2.3 -3.09,-2.3c-46.91,-0.4 -498.54,-0.69 -509.36,-0.35m15.78,41.64c-2.84,0.33 -4.66,1.44 -4.27,2.6c0.51,1.49 13.67,2.17 48.11,2.51c42.11,0.4 47.79,0.8 50.79,3.47c3.04,2.69 9.22,3.05 60.05,3.5l56.66,0.5l7.47,6l7.45,6l110.59,0c78.34,0 111.74,-0.57 114.48,-1.94c5.97,-3.03 19.03,-17.54 18.45,-20.52c-0.48,-2.39 -25,-2.67 -232.66,-2.67c-127.68,0 -234.38,0.24 -237.11,0.55m42.92,41.71c0,3.19 6.67,3.66 51.15,3.66c41.63,0 46.24,0.29 53.27,3.43c7.15,3.19 11.72,3.43 65.15,3.47l57.45,0.03l15.7,5.37c28.5,9.76 71.77,9.7 104.13,-0.12c18.63,-5.67 33.53,-13.03 31.8,-15.75c-1.34,-2.13 -378.64,-2.22 -378.64,-0.09" fill="#ffffff" fill-rule="evenodd" id="svg_2"/>
 </g>
</svg>